With: Natassia Malthe, Michael Paré and Brendan Fletcher

Rayne vecht tegen de Nazi's in Europa tijdens de Tweede Wereldoorlog. Ze wordt geconfronteerd met Ekart Brand, een Nazileider die als doel heeft om Hitler in te spuiten met Rayne's bloed in een poging hem te veranderen in een dhampir (half mens, half vampier) en hem hierdoor onsterfelijk te maken.

Rayne fights against the Nazis in Europe during World War II, encountering Ekart Brand, a Nazi leader...

------------------ Dutch Friends ------------------

You can find my Friends at: http://www.Film-Test.nl 
                    
------ They got my dutchs subs ---- and more ------

General:

Complete name                    : Bloodrayne 3, The Third Reich\Bloodrayne 3, The Third Reich.avi
Format                           : AVI
Format/Info                      : Audio Video Interleave
File size                        : 1.18 GiB
Duration                         : 1h 15mn
Overall bit rate                 : 2 236 Kbps

Video:

Format                           : MPEG-4 Visual
Format profile                   : Simple@L3
Format settings, BVOP            : No
Format settings, QPel            : No
Format settings, GMC             : No warppoints
Format settings, Matrix          : Default (H.263)
Codec ID                         : XVID
Codec ID/Hint                    : XviD
Duration                         : 1h 15mn
Bit rate                         : 1 841 Kbps
Width                            : 652 pixels
Height                           : 352 pixels
Display aspect ratio             : 1.852
Frame rate                       : 25.000 fps
Color space                      : YUV
Chroma subsampling               : 4:2:0
Bit depth                        : 8 bits
Scan type                        : Progressive
Bits/(Pixel*Frame)               : 0.321
Stream size                      : 999 MiB (82%)
Writing library                  : XviD 1.1.2 (UTC 2006-11-01)

Audio:

Format                           : AC-3
Format/Info                      : Audio Coding 3
Mode extension                   : CM (complete main)
Codec ID                         : 2000
Duration                         : 1h 15mn
Bit rate mode                    : Constant
Bit rate                         : 384 Kbps
Channel(s)                       : 6 channels
Channel positions                : Front: L C R, Side: L R, LFE
Sampling rate                    : 48.0 KHz
Bit depth                        : 16 bits
Stream size                      : 208 MiB (17%)
Alignment                        : Aligned on interleaves
Interleave, duration             : 32 ms (0.80 video frame)
Interleave, preload duration     : 160 ms


